Patient4_TMGait_0pt7_02_left_40_EMG.mot
version=1
nRows=13
nColumns=33
inDegrees=no
endheader
time	1LAddLong	2LGlutMax	3LGlutMed	4LIliopsoas	5LSemiMemb	6LBicFemLong	7LRecFem	8LVastMed	9LVastLat	10LGasMed	11LTibAnt	12lTibPost	13LPeroneusLong	14LSol	15LExtDigLong	16LFlexDigLong	17RAddLong	18RGlutMax	19RGlutMed	20RIliopsoas	21RSemiMemb	22RBicFemLong	23RRecFem	24RVastMed	25RVastLat	26RGasMed	27RTibAnt	28RTibPost	29RPeroneusLong	30RSol	31RExtDigLong	32RFlexDigLong
45.82	0.031891	0.5278	0.02243	0.007172	0.008392	0.04837	0.037384	0.003662	0.12024	-0.051422	0.21027	-0.003815	-0.012054	-0.052338	-0.04776	-0.020294	0.021515	-0.068054	0.46417	-0.001984	-0.13733	-0.022125	0.11826	0.014496	-0.12054	-0.026703	-0.2388	-0.016785	0.074158	-0.050049	-0.002441	-0.020752
45.821	0.027313	0.55695	0.028839	0.040588	0.021973	0.051727	0.053406	0.001984	0.11368	-0.09964	0.068817	0.004425	0.00061	-0.068359	0.13489	-0.018768	-0.001068	-0.06485	0.49393	0.081177	-0.34424	-0.069122	0.024719	-0.005493	-0.010986	-0.014954	0.003052	-0.001678	0.063782	-0.34759	-0.000305	-0.018005
45.822	0.017242	0.59265	0.030365	0.074768	0.02182	0.057068	0.050659	0.007172	0.10407	-0.14618	-0.096436	0.000458	0.10315	-0.055542	0.56656	-0.025635	-0.019073	-0.1149	0.41779	-0.006714	-0.34836	-0.072327	0.023499	0.16327	0.080414	-0.00473	0.1152	-0.001526	0.011139	-0.4335	-0.003967	-0.009003
45.823	0.010681	0.59113	-0.003052	0.082397	0.008698	0.043335	0.041962	0.011292	0.091553	-0.11627	-0.15488	0.003204	0.05722	-0.041199	0.4985	-0.022125	-0.052643	-0.10407	-0.047913	-0.12268	-0.2417	-0.18845	0.069275	0.23239	0.063477	0.007935	0.069733	-0.003662	-0.007782	-0.025787	-0.00061	-0.011597
45.824	0.001526	0.58929	-0.019836	0.036926	-0.007019	0.00824	0.061188	0.002289	0.092926	-0.04364	0.098572	0.007935	-0.11932	-0.040741	-0.17899	-0.022278	-0.019226	-0.092621	-0.34912	-0.20065	0.076599	-0.19272	0.15778	0.10895	0.004425	-0.001526	0.224	-0.008087	0.001984	0.4657	-0.000763	-0.009155
45.825	0.009308	0.6041	-0.001373	-0.032501	-0.013123	-0.024109	0.071564	0.014038	0.086365	-0.003967	0.16052	-0.001678	-0.12741	-0.016785	0.12039	-0.019226	-0.009308	-0.032959	-0.38681	-0.16235	0.02182	-0.06485	0.215	0.011444	-0.028229	-0.001984	0.29236	-0.019989	-0.11581	0.73502	-0.002747	-0.00824
45.826	0.016174	0.62393	0.010529	-0.046539	-0.00061	-0.040436	0.073547	0.003967	0.08728	-0.026398	0.076141	-0.010529	-0.075684	0.002441	-0.56671	-0.014496	-0.012665	-0.054932	-0.3981	0.022125	-0.1506	0.021362	0.15549	0.039215	-0.045471	0.014038	0.21652	-0.019684	-0.097656	0.50842	0.000458	-0.011292
45.827	0.016785	0.6102	-0.00824	-0.028229	-0.002747	-0.018616	0.070801	0.002899	0.074768	-0.065002	-0.072327	0.000458	0	-0.039063	-0.41214	-0.011444	-0.003662	-0.052338	-0.16419	0.11871	-0.13825	0.015411	0.15747	-0.025787	-0.015717	0.014191	-0.27405	-0.053253	-0.050049	0.68176	-0.001831	-0.015259
45.828	0.005646	0.60181	-0.033875	-0.007324	-0.004883	0.017242	0.075684	0.004272	0.075073	-0.042267	-0.11871	0	0.10819	-0.072784	-0.32577	-0.010834	0.013428	-0.032806	-0.21927	0.19562	0.06012	-0.061951	0.16266	-0.06073	-0.018768	-0.007477	-0.10834	-0.06134	-0.17593	0.57983	-0.000916	-0.018768
45.829	0.041656	0.63583	-0.014648	0.003357	-0.003662	0.021667	0.061188	-0.001678	0.0737	0.004883	-0.084991	0.001373	0.1712	-0.070496	-0.29755	-0.002594	-0.012512	-0.036163	-0.30838	0.12756	0.20233	0.003662	0.040131	-0.06958	-0.010834	-0.017548	0.14084	0.055237	-0.21378	0.44067	-0.001678	-0.019379
45.83	0.03418	0.60623	-0.027161	0.00061	-0.006104	0.026398	0.071564	0.005493	0.061646	0.040131	-0.06958	0.002289	0.084839	-0.038605	-0.15381	-0.007935	-0.036163	-0.056458	-0.43381	-0.005798	0.16068	0.010071	-0.12283	-0.090027	0.47379	-0.009918	0.12314	0.029449	-0.10864	0.12085	0.000153	-0.014191
45.831	0.024261	0.58441	-0.029755	0.011139	-0.028992	0.00946	0.048523	0.005493	0.054932	0.02594	-0.10223	-0.007935	0.073242	-0.004425	-0.049133	-0.002289	-0.027313	-0.092468	0.36209	-0.018311	0.13046	-0.034332	-0.23926	0.018158	0.69168	-0.018311	0.11826	0.00946	-0.077362	-0.14221	0.000458	-0.014954
45.832	0.007019	0.57648	-0.036926	-0.006256	-0.02182	0.008698	0.042267	0.00946	0.054626	-0.026093	-0.025482	-0.006866	0.10147	0.007477	0.043182	-0.007019	0.003204	-0.12497	0.54489	-0.027313	0.049438	-0.061035	-0.19241	0.089722	0.69138	-0.023499	0.12589	0.032654	-0.047913	-0.22339	0.002289	-0.014496
